<svg width="24" height="24" viewBox="0 0 24 24" fill="none" xmlns="http://www.w3.org/2000/svg">
<g id="expand">
<path id="Vector" d="M3.16981 10.7972C3.45503 10.5439 3.77095 10.4173 4.11757 10.4173C4.46422 10.4173 4.76625 10.5439 5.02366 10.7972L10.779 16.3118L16.5424 10.7647C16.7773 10.5115 17.085 10.3902 17.4653 10.4011C17.8455 10.4119 18.1559 10.5439 18.3962 10.7972C18.6761 11.0453 18.8104 11.3364 18.7992 11.6705C18.7879 12.0046 18.6536 12.2957 18.3962 12.5438L11.6763 19.0205C11.5588 19.1337 11.4218 19.2254 11.2653 19.2954C11.1088 19.3654 10.9467 19.4004 10.779 19.4004C10.5889 19.4004 10.4169 19.3654 10.2631 19.2954C10.1092 19.2254 9.97358 19.1337 9.85608 19.0205L3.16981 12.5762C2.9124 12.3281 2.7893 12.0316 2.80051 11.6867C2.81172 11.3418 2.93482 11.0453 3.16981 10.7972Z" fill="#B2F817"/>
</g>
</svg>
